<?xml version="1.0" encoding="UTF-8" standalone="no"?>
<!DOCTYPE svg PUBLIC "-//W3C//DTD SVG 1.1//EN"
 "http://www.w3.org/Graphics/SVG/1.1/DTD/svg11.dtd">
<!-- Generated by graphviz version 2.40.1 (20161225.0304)
 -->
<!-- Title: DAG Pages: 1 -->
<svg width="500pt" height="900pt"
 viewBox="0.00 0.00 1010.85 1840.00" xmlns="http://www.w3.org/2000/svg" xmlns:xlink="http://www.w3.org/1999/xlink">
<g id="graph0" class="graph" transform="scale(1 1) rotate(0) translate(4 1836)">
<title>DAG</title>
<polygon fill="#ffffff" stroke="transparent" points="-4,4 -4,-1836 1006.8496,-1836 1006.8496,4 -4,4"/>
<!-- 0x7fbd4de013f0 -->
<g id="node1" class="node">
<title>0x7fbd4de013f0</title>
<path fill="#cdc9c9" stroke="#00688b" stroke-width="2" d="M787.9902,-515.5C787.9902,-515.5 885.3594,-515.5 885.3594,-515.5 891.3594,-515.5 897.3594,-521.5 897.3594,-527.5 897.3594,-527.5 897.3594,-631.5 897.3594,-631.5 897.3594,-637.5 891.3594,-643.5 885.3594,-643.5 885.3594,-643.5 787.9902,-643.5 787.9902,-643.5 781.9902,-643.5 775.9902,-637.5 775.9902,-631.5 775.9902,-631.5 775.9902,-527.5 775.9902,-527.5 775.9902,-521.5 781.9902,-515.5 787.9902,-515.5"/>
<text text-anchor="start" x="783.9902" y="-628.3" font-family="Times,serif" font-size="14.00" fill="#000000">Variable</text>
<text text-anchor="start" x="783.9902" y="-614.3" font-family="Times,serif" font-size="14.00" fill="#000000">name : &quot;bias__13&quot;</text>
<text text-anchor="start" x="783.9902" y="-600.3" font-family="Times,serif" font-size="14.00" fill="#000000">output : float&lt;10&gt;</text>
<text text-anchor="start" x="783.9902" y="-586.3" font-family="Times,serif" font-size="14.00" fill="#000000">visibility : private</text>
<text text-anchor="start" x="783.9902" y="-572.3" font-family="Times,serif" font-size="14.00" fill="#000000">init : broadcast</text>
<text text-anchor="start" x="783.9902" y="-558.3" font-family="Times,serif" font-size="14.00" fill="#000000">val : 1.000000e&#45;01</text>
<text text-anchor="start" x="783.9902" y="-544.3" font-family="Times,serif" font-size="14.00" fill="#000000">users : 1</text>
<polyline fill="none" stroke="#00688b" stroke-width="2" points="775.9902,-537.5 897.3594,-537.5 "/>
<text text-anchor="middle" x="836.4351" y="-522.3" font-family="Times,serif" font-size="14.00" fill="#000000">Output</text>
</g>
<!-- 0x7fbd4de01590 -->
<g id="node4" class="node">
<title>0x7fbd4de01590</title>
<path fill="#cdb5cd" stroke="#000000" stroke-width="2" d="M604.6138,-310.5C604.6138,-310.5 754.7358,-310.5 754.7358,-310.5 760.7358,-310.5 766.7358,-316.5 766.7358,-322.5 766.7358,-322.5 766.7358,-448.5 766.7358,-448.5 766.7358,-454.5 760.7358,-460.5 754.7358,-460.5 754.7358,-460.5 604.6138,-460.5 604.6138,-460.5 598.6138,-460.5 592.6138,-454.5 592.6138,-448.5 592.6138,-448.5 592.6138,-322.5 592.6138,-322.5 592.6138,-316.5 598.6138,-310.5 604.6138,-310.5"/>
<text text-anchor="middle" x="619.3896" y="-445.3" font-family="Times,serif" font-size="14.00" fill="#000000">Input</text>
<polyline fill="none" stroke="#000000" stroke-width="2" points="646.1655,-438.5 646.1655,-460.5 "/>
<text text-anchor="middle" x="681.436" y="-445.3" font-family="Times,serif" font-size="14.00" fill="#000000">Weights</text>
<polyline fill="none" stroke="#000000" stroke-width="2" points="716.7065,-438.5 716.7065,-460.5 "/>
<text text-anchor="middle" x="741.6514" y="-445.3" font-family="Times,serif" font-size="14.00" fill="#000000">Bias</text>
<polyline fill="none" stroke="#000000" stroke-width="2" points="592.6138,-438.5 766.7358,-438.5 "/>
<text text-anchor="start" x="600.6138" y="-423.3" font-family="Times,serif" font-size="14.00" fill="#000000">FullyConnected</text>
<text text-anchor="start" x="600.6138" y="-409.3" font-family="Times,serif" font-size="14.00" fill="#000000">name : fc__14</text>
<text text-anchor="start" x="600.6138" y="-395.3" font-family="Times,serif" font-size="14.00" fill="#000000">Input : float&lt;8 x 3 x 3 x 16&gt;</text>
<text text-anchor="start" x="600.6138" y="-381.3" font-family="Times,serif" font-size="14.00" fill="#000000">Weights : float&lt;144 x 10&gt;</text>
<text text-anchor="start" x="600.6138" y="-367.3" font-family="Times,serif" font-size="14.00" fill="#000000">Bias : float&lt;10&gt;</text>
<text text-anchor="start" x="600.6138" y="-353.3" font-family="Times,serif" font-size="14.00" fill="#000000">users : 1</text>
<text text-anchor="start" x="600.6138" y="-339.3" font-family="Times,serif" font-size="14.00" fill="#000000">Result : float&lt;8 x 10&gt;</text>
<polyline fill="none" stroke="#000000" stroke-width="2" points="592.6138,-332.5 766.7358,-332.5 "/>
<text text-anchor="middle" x="679.5034" y="-317.3" font-family="Times,serif" font-size="14.00" fill="#000000">Result</text>
</g>
<!-- 0x7fbd4de013f0&#45;&gt;0x7fbd4de01590 -->
<g id="edge3" class="edge">
<title>0x7fbd4de013f0:Output&#45;&gt;0x7fbd4de01590:Bias</title>
<path fill="none" stroke="#000000" d="M775.6748,-526.5C761.9466,-526.5 775.3223,-477.6042 772.6051,-457.7403"/>
<polygon fill="#000000" stroke="#000000" points="775.3569,-455.5722 766.6748,-449.5 769.6752,-459.6611 775.3569,-455.5722"/>
</g>
<!-- 0x7fbd4de012c0 -->
<g id="node2" class="node">
<title>0x7fbd4de012c0</title>
<path fill="#cdc9c9" stroke="#00688b" stroke-width="2" d="M617.5,-515.5C617.5,-515.5 745.8496,-515.5 745.8496,-515.5 751.8496,-515.5 757.8496,-521.5 757.8496,-527.5 757.8496,-527.5 757.8496,-631.5 757.8496,-631.5 757.8496,-637.5 751.8496,-643.5 745.8496,-643.5 745.8496,-643.5 617.5,-643.5 617.5,-643.5 611.5,-643.5 605.5,-637.5 605.5,-631.5 605.5,-631.5 605.5,-527.5 605.5,-527.5 605.5,-521.5 611.5,-515.5 617.5,-515.5"/>
<text text-anchor="start" x="613.5" y="-628.3" font-family="Times,serif" font-size="14.00" fill="#000000">Variable</text>
<text text-anchor="start" x="613.5" y="-614.3" font-family="Times,serif" font-size="14.00" fill="#000000">name : &quot;weights__12&quot;</text>
<text text-anchor="start" x="613.5" y="-600.3" font-family="Times,serif" font-size="14.00" fill="#000000">output : float&lt;144 x 10&gt;</text>
<text text-anchor="start" x="613.5" y="-586.3" font-family="Times,serif" font-size="14.00" fill="#000000">visibility : private</text>
<text text-anchor="start" x="613.5" y="-572.3" font-family="Times,serif" font-size="14.00" fill="#000000">init : xavier</text>
<text text-anchor="start" x="613.5" y="-558.3" font-family="Times,serif" font-size="14.00" fill="#000000">val : 1.440000e+02</text>
<text text-anchor="start" x="613.5" y="-544.3" font-family="Times,serif" font-size="14.00" fill="#000000">users : 1</text>
<polyline fill="none" stroke="#00688b" stroke-width="2" points="605.5,-537.5 757.8496,-537.5 "/>
<text text-anchor="middle" x="681.4448" y="-522.3" font-family="Times,serif" font-size="14.00" fill="#000000">Output</text>
</g>
<!-- 0x7fbd4de012c0&#45;&gt;0x7fbd4de01590 -->
<g id="edge4" class="edge">
<title>0x7fbd4de012c0:Output&#45;&gt;0x7fbd4de01590:Weights</title>
<path fill="none" stroke="#000000" d="M681.6748,-515.5C681.6748,-494.875 681.6748,-487.3018 681.6748,-470.7554"/>
<polygon fill="#000000" stroke="#000000" points="685.1749,-470.5 681.6748,-460.5 678.1749,-470.5 685.1749,-470.5"/>
</g>
<!-- 0x7fbd4de01c60 -->
<g id="node3" class="node">
<title>0x7fbd4de01c60</title>
<path fill="#b0e0e6" stroke="#000000" stroke-width="2" d="M787.9194,-.5C787.9194,-.5 921.4302,-.5 921.4302,-.5 927.4302,-.5 933.4302,-6.5 933.4302,-12.5 933.4302,-12.5 933.4302,-88.5 933.4302,-88.5 933.4302,-94.5 927.4302,-100.5 921.4302,-100.5 921.4302,-100.5 787.9194,-100.5 787.9194,-100.5 781.9194,-100.5 775.9194,-94.5 775.9194,-88.5 775.9194,-88.5 775.9194,-12.5 775.9194,-12.5 775.9194,-6.5 781.9194,-.5 787.9194,-.5"/>
<text text-anchor="middle" x="812.6953" y="-85.3" font-family="Times,serif" font-size="14.00" fill="#000000">Input</text>
<polyline fill="none" stroke="#000000" stroke-width="2" points="849.4712,-78.5 849.4712,-100.5 "/>
<text text-anchor="middle" x="891.416" y="-85.3" font-family="Times,serif" font-size="14.00" fill="#000000">Output</text>
<polyline fill="none" stroke="#000000" stroke-width="2" points="775.9194,-78.5 933.4302,-78.5 "/>
<text text-anchor="start" x="783.9194" y="-63.3" font-family="Times,serif" font-size="14.00" fill="#000000">Save</text>
<text text-anchor="start" x="783.9194" y="-49.3" font-family="Times,serif" font-size="14.00" fill="#000000">name : _save_return__18</text>
<text text-anchor="start" x="783.9194" y="-35.3" font-family="Times,serif" font-size="14.00" fill="#000000">Input : float&lt;8 x 10&gt;</text>
<text text-anchor="start" x="783.9194" y="-21.3" font-family="Times,serif" font-size="14.00" fill="#000000">Output : float&lt;8 x 10&gt;</text>
<text text-anchor="start" x="783.9194" y="-7.3" font-family="Times,serif" font-size="14.00" fill="#000000">users : 0</text>
</g>
<!-- 0x7fbd4de018c0 -->
<g id="node13" class="node">
<title>0x7fbd4de018c0</title>
<path fill="#ffe4e1" stroke="#000000" stroke-width="2" d="M709.0723,-137.5C709.0723,-137.5 834.2773,-137.5 834.2773,-137.5 840.2773,-137.5 846.2773,-143.5 846.2773,-149.5 846.2773,-149.5 846.2773,-261.5 846.2773,-261.5 846.2773,-267.5 840.2773,-273.5 834.2773,-273.5 834.2773,-273.5 709.0723,-273.5 709.0723,-273.5 703.0723,-273.5 697.0723,-267.5 697.0723,-261.5 697.0723,-261.5 697.0723,-149.5 697.0723,-149.5 697.0723,-143.5 703.0723,-137.5 709.0723,-137.5"/>
<text text-anchor="middle" x="729.8481" y="-258.3" font-family="Times,serif" font-size="14.00" fill="#000000">Input</text>
<polyline fill="none" stroke="#000000" stroke-width="2" points="762.624,-251.5 762.624,-273.5 "/>
<text text-anchor="middle" x="804.3345" y="-258.3" font-family="Times,serif" font-size="14.00" fill="#000000">Selected</text>
<polyline fill="none" stroke="#000000" stroke-width="2" points="697.0723,-251.5 846.2773,-251.5 "/>
<text text-anchor="start" x="705.0723" y="-236.3" font-family="Times,serif" font-size="14.00" fill="#000000">SoftMax</text>
<text text-anchor="start" x="705.0723" y="-222.3" font-family="Times,serif" font-size="14.00" fill="#000000">name : sm__16</text>
<text text-anchor="start" x="705.0723" y="-208.3" font-family="Times,serif" font-size="14.00" fill="#000000">Input : float&lt;8 x 10&gt;</text>
<text text-anchor="start" x="705.0723" y="-194.3" font-family="Times,serif" font-size="14.00" fill="#000000">Selected : index&lt;8 x 1&gt;</text>
<text text-anchor="start" x="705.0723" y="-180.3" font-family="Times,serif" font-size="14.00" fill="#000000">users : 1</text>
<text text-anchor="start" x="705.0723" y="-166.3" font-family="Times,serif" font-size="14.00" fill="#000000">Result : float&lt;8 x 10&gt;</text>
<polyline fill="none" stroke="#000000" stroke-width="2" points="697.0723,-159.5 846.2773,-159.5 "/>
<text text-anchor="middle" x="771.4619" y="-144.3" font-family="Times,serif" font-size="14.00" fill="#000000">Result</text>
</g>
<!-- 0x7fbd4de01590&#45;&gt;0x7fbd4de018c0 -->
<g id="edge16" class="edge">
<title>0x7fbd4de01590:Result&#45;&gt;0x7fbd4de018c0:Input</title>
<path fill="none" stroke="#000000" d="M766.6748,-321.5C771.7859,-321.5 768.6468,-314.7154 766.6748,-310 759.364,-292.5185 739.1497,-294.7001 732.1213,-283.2978"/>
<polygon fill="#000000" stroke="#000000" points="735.4932,-282.3542 729.6748,-273.5 728.7017,-284.05 735.4932,-282.3542"/>
</g>
<!-- 0x7fbd4de01a00 -->
<g id="node5" class="node">
<title>0x7fbd4de01a00</title>
<path fill="#eee9e9" stroke="#6e8b3d" stroke-width="2" d="M876.5,-155.5C876.5,-155.5 990.8496,-155.5 990.8496,-155.5 996.8496,-155.5 1002.8496,-161.5 1002.8496,-167.5 1002.8496,-167.5 1002.8496,-243.5 1002.8496,-243.5 1002.8496,-249.5 996.8496,-255.5 990.8496,-255.5 990.8496,-255.5 876.5,-255.5 876.5,-255.5 870.5,-255.5 864.5,-249.5 864.5,-243.5 864.5,-243.5 864.5,-167.5 864.5,-167.5 864.5,-161.5 870.5,-155.5 876.5,-155.5"/>
<text text-anchor="start" x="872.5" y="-240.3" font-family="Times,serif" font-size="14.00" fill="#000000">Variable</text>
<text text-anchor="start" x="872.5" y="-226.3" font-family="Times,serif" font-size="14.00" fill="#000000">name : &quot;return__17&quot;</text>
<text text-anchor="start" x="872.5" y="-212.3" font-family="Times,serif" font-size="14.00" fill="#000000">output : float&lt;8 x 10&gt;</text>
<text text-anchor="start" x="872.5" y="-198.3" font-family="Times,serif" font-size="14.00" fill="#000000">visibility : public</text>
<text text-anchor="start" x="872.5" y="-184.3" font-family="Times,serif" font-size="14.00" fill="#000000">users : 1</text>
<polyline fill="none" stroke="#6e8b3d" stroke-width="2" points="864.5,-177.5 1002.8496,-177.5 "/>
<text text-anchor="middle" x="933.4448" y="-162.3" font-family="Times,serif" font-size="14.00" fill="#000000">Output</text>
</g>
<!-- 0x7fbd4de01a00&#45;&gt;0x7fbd4de01c60 -->
<g id="edge2" class="edge">
<title>0x7fbd4de01a00:Output&#45;&gt;0x7fbd4de01c60:Output</title>
<path fill="none" stroke="#000000" d="M864.2835,-156.4338C864.4319,-155.9467 864.5656,-155.4666 864.6748,-155 869.9705,-132.3812 886.1044,-128.3525 890.5373,-110.5104"/>
<polygon fill="#000000" stroke="#000000" points="860.789,-156.6435 864.6748,-166.5 867.7837,-156.3716 860.789,-156.6435"/>
<polygon fill="#000000" stroke="#000000" points="894.0233,-110.8312 891.6748,-100.5 887.0681,-110.0409 894.0233,-110.8312"/>
</g>
<!-- 0x7fbd4de00640 -->
<g id="node6" class="node">
<title>0x7fbd4de00640</title>
<path fill="#eee9e9" stroke="#6e8b3d" stroke-width="2" d="M12,-1717.5C12,-1717.5 175.3496,-1717.5 175.3496,-1717.5 181.3496,-1717.5 187.3496,-1723.5 187.3496,-1729.5 187.3496,-1729.5 187.3496,-1805.5 187.3496,-1805.5 187.3496,-1811.5 181.3496,-1817.5 175.3496,-1817.5 175.3496,-1817.5 12,-1817.5 12,-1817.5 6,-1817.5 0,-1811.5 0,-1805.5 0,-1805.5 0,-1729.5 0,-1729.5 0,-1723.5 6,-1717.5 12,-1717.5"/>
<text text-anchor="start" x="8" y="-1802.3" font-family="Times,serif" font-size="14.00" fill="#000000">Variable</text>
<text text-anchor="start" x="8" y="-1788.3" font-family="Times,serif" font-size="14.00" fill="#000000">name : &quot;input__1&quot;</text>
<text text-anchor="start" x="8" y="-1774.3" font-family="Times,serif" font-size="14.00" fill="#000000">output : float&lt;8 x 28 x 28 x 1&gt;</text>
<text text-anchor="start" x="8" y="-1760.3" font-family="Times,serif" font-size="14.00" fill="#000000">visibility : public</text>
<text text-anchor="start" x="8" y="-1746.3" font-family="Times,serif" font-size="14.00" fill="#000000">users : 1</text>
<polyline fill="none" stroke="#6e8b3d" stroke-width="2" points="0,-1739.5 187.3496,-1739.5 "/>
<text text-anchor="middle" x="93.4448" y="-1724.3" font-family="Times,serif" font-size="14.00" fill="#000000">Output</text>
</g>
<!-- 0x7fbd4de00b00 -->
<g id="node18" class="node">
<title>0x7fbd4de00b00</title>
<path fill="#ffe1ff" stroke="#000000" stroke-width="2" d="M208.5,-1460.5C208.5,-1460.5 378.8496,-1460.5 378.8496,-1460.5 384.8496,-1460.5 390.8496,-1466.5 390.8496,-1472.5 390.8496,-1472.5 390.8496,-1654.5 390.8496,-1654.5 390.8496,-1660.5 384.8496,-1666.5 378.8496,-1666.5 378.8496,-1666.5 208.5,-1666.5 208.5,-1666.5 202.5,-1666.5 196.5,-1660.5 196.5,-1654.5 196.5,-1654.5 196.5,-1472.5 196.5,-1472.5 196.5,-1466.5 202.5,-1460.5 208.5,-1460.5"/>
<text text-anchor="middle" x="229.2759" y="-1651.3" font-family="Times,serif" font-size="14.00" fill="#000000">Input</text>
<polyline fill="none" stroke="#000000" stroke-width="2" points="262.0518,-1644.5 262.0518,-1666.5 "/>
<text text-anchor="middle" x="295.7173" y="-1651.3" font-family="Times,serif" font-size="14.00" fill="#000000">Filter</text>
<polyline fill="none" stroke="#000000" stroke-width="2" points="329.3828,-1644.5 329.3828,-1666.5 "/>
<text text-anchor="middle" x="359.8276" y="-1651.3" font-family="Times,serif" font-size="14.00" fill="#000000">Bias</text>
<polyline fill="none" stroke="#000000" stroke-width="2" points="196.5,-1644.5 390.8496,-1644.5 "/>
<text text-anchor="start" x="204.5" y="-1629.3" font-family="Times,serif" font-size="14.00" fill="#000000">Convolution</text>
<text text-anchor="start" x="204.5" y="-1615.3" font-family="Times,serif" font-size="14.00" fill="#000000">name : conv__4</text>
<text text-anchor="start" x="204.5" y="-1601.3" font-family="Times,serif" font-size="14.00" fill="#000000">Input : float&lt;8 x 28 x 28 x 1&gt;</text>
<text text-anchor="start" x="204.5" y="-1587.3" font-family="Times,serif" font-size="14.00" fill="#000000">Filter : float&lt;16 x 5 x 5 x 1&gt;</text>
<text text-anchor="start" x="204.5" y="-1573.3" font-family="Times,serif" font-size="14.00" fill="#000000">Bias : float&lt;16&gt;</text>
<text text-anchor="start" x="204.5" y="-1559.3" font-family="Times,serif" font-size="14.00" fill="#000000">Kernel : 5</text>
<text text-anchor="start" x="204.5" y="-1545.3" font-family="Times,serif" font-size="14.00" fill="#000000">Stride : 1</text>
<text text-anchor="start" x="204.5" y="-1531.3" font-family="Times,serif" font-size="14.00" fill="#000000">Pad : 2</text>
<text text-anchor="start" x="204.5" y="-1517.3" font-family="Times,serif" font-size="14.00" fill="#000000">Depth : 16</text>
<text text-anchor="start" x="204.5" y="-1503.3" font-family="Times,serif" font-size="14.00" fill="#000000">users : 1</text>
<text text-anchor="start" x="204.5" y="-1489.3" font-family="Times,serif" font-size="14.00" fill="#000000">Result : float&lt;8 x 28 x 28 x 16&gt;</text>
<polyline fill="none" stroke="#000000" stroke-width="2" points="196.5,-1482.5 390.8496,-1482.5 "/>
<text text-anchor="middle" x="293.3896" y="-1467.3" font-family="Times,serif" font-size="14.00" fill="#000000">Result</text>
</g>
<!-- 0x7fbd4de00640&#45;&gt;0x7fbd4de00b00 -->
<g id="edge12" class="edge">
<title>0x7fbd4de00640:Output&#45;&gt;0x7fbd4de00b00:Input</title>
<path fill="none" stroke="#000000" d="M186.6748,-1728.5C199.5947,-1728.5 188.157,-1683.0488 190.801,-1663.874"/>
<polygon fill="#000000" stroke="#000000" points="193.7977,-1665.6967 196.6748,-1655.5 188.0669,-1661.6769 193.7977,-1665.6967"/>
</g>
<!-- 0x7fbd4de01180 -->
<g id="node7" class="node">
<title>0x7fbd4de01180</title>
<path fill="#fa8072" stroke="#000000" stroke-width="2" d="M419.5,-497.5C419.5,-497.5 575.8496,-497.5 575.8496,-497.5 581.8496,-497.5 587.8496,-503.5 587.8496,-509.5 587.8496,-509.5 587.8496,-649.5 587.8496,-649.5 587.8496,-655.5 581.8496,-661.5 575.8496,-661.5 575.8496,-661.5 419.5,-661.5 419.5,-661.5 413.5,-661.5 407.5,-655.5 407.5,-649.5 407.5,-649.5 407.5,-509.5 407.5,-509.5 407.5,-503.5 413.5,-497.5 419.5,-497.5"/>
<text text-anchor="middle" x="497.2759" y="-646.3" font-family="Times,serif" font-size="14.00" fill="#000000">Input</text>
<polyline fill="none" stroke="#000000" stroke-width="2" points="407.5,-639.5 587.8496,-639.5 "/>
<text text-anchor="start" x="415.5" y="-624.3" font-family="Times,serif" font-size="14.00" fill="#000000">PoolMax</text>
<text text-anchor="start" x="415.5" y="-610.3" font-family="Times,serif" font-size="14.00" fill="#000000">name : pool__11</text>
<text text-anchor="start" x="415.5" y="-596.3" font-family="Times,serif" font-size="14.00" fill="#000000">Input : float&lt;8 x 9 x 9 x 16&gt;</text>
<text text-anchor="start" x="415.5" y="-582.3" font-family="Times,serif" font-size="14.00" fill="#000000">Kernel : 3</text>
<text text-anchor="start" x="415.5" y="-568.3" font-family="Times,serif" font-size="14.00" fill="#000000">Stride : 3</text>
<text text-anchor="start" x="415.5" y="-554.3" font-family="Times,serif" font-size="14.00" fill="#000000">Pad : 0</text>
<text text-anchor="start" x="415.5" y="-540.3" font-family="Times,serif" font-size="14.00" fill="#000000">users : 1</text>
<text text-anchor="start" x="415.5" y="-526.3" font-family="Times,serif" font-size="14.00" fill="#000000">Result : float&lt;8 x 3 x 3 x 16&gt;</text>
<polyline fill="none" stroke="#000000" stroke-width="2" points="407.5,-519.5 587.8496,-519.5 "/>
<text text-anchor="middle" x="497.3896" y="-504.3" font-family="Times,serif" font-size="14.00" fill="#000000">Result</text>
</g>
<!-- 0x7fbd4de01180&#45;&gt;0x7fbd4de01590 -->
<g id="edge6" class="edge">
<title>0x7fbd4de01180:Result&#45;&gt;0x7fbd4de01590:Input</title>
<path fill="none" stroke="#000000" d="M587.6748,-508.5C608.6455,-508.5 582.6582,-471.0344 584.5522,-455.814"/>
<polygon fill="#000000" stroke="#000000" points="586.9276,-458.4006 592.6748,-449.5 582.6315,-452.8739 586.9276,-458.4006"/>
</g>
<!-- 0x7fbd4de00e10 -->
<g id="node8" class="node">
<title>0x7fbd4de00e10</title>
<path fill="#cdc9c9" stroke="#00688b" stroke-width="2" d="M418,-1118.5C418,-1118.5 581.3496,-1118.5 581.3496,-1118.5 587.3496,-1118.5 593.3496,-1124.5 593.3496,-1130.5 593.3496,-1130.5 593.3496,-1234.5 593.3496,-1234.5 593.3496,-1240.5 587.3496,-1246.5 581.3496,-1246.5 581.3496,-1246.5 418,-1246.5 418,-1246.5 412,-1246.5 406,-1240.5 406,-1234.5 406,-1234.5 406,-1130.5 406,-1130.5 406,-1124.5 412,-1118.5 418,-1118.5"/>
<text text-anchor="start" x="414" y="-1231.3" font-family="Times,serif" font-size="14.00" fill="#000000">Variable</text>
<text text-anchor="start" x="414" y="-1217.3" font-family="Times,serif" font-size="14.00" fill="#000000">name : &quot;filter__7&quot;</text>
<text text-anchor="start" x="414" y="-1203.3" font-family="Times,serif" font-size="14.00" fill="#000000">output : float&lt;16 x 5 x 5 x 16&gt;</text>
<text text-anchor="start" x="414" y="-1189.3" font-family="Times,serif" font-size="14.00" fill="#000000">visibility : private</text>
<text text-anchor="start" x="414" y="-1175.3" font-family="Times,serif" font-size="14.00" fill="#000000">init : xavier</text>
<text text-anchor="start" x="414" y="-1161.3" font-family="Times,serif" font-size="14.00" fill="#000000">val : 4.000000e+02</text>
<text text-anchor="start" x="414" y="-1147.3" font-family="Times,serif" font-size="14.00" fill="#000000">users : 1</text>
<polyline fill="none" stroke="#00688b" stroke-width="2" points="406,-1140.5 593.3496,-1140.5 "/>
<text text-anchor="middle" x="499.4448" y="-1125.3" font-family="Times,serif" font-size="14.00" fill="#000000">Output</text>
</g>
<!-- 0x7fbd4de00ef0 -->
<g id="node9" class="node">
<title>0x7fbd4de00ef0</title>
<path fill="#ffe1ff" stroke="#000000" stroke-width="2" d="M418.7241,-857.5C418.7241,-857.5 576.6255,-857.5 576.6255,-857.5 582.6255,-857.5 588.6255,-863.5 588.6255,-869.5 588.6255,-869.5 588.6255,-1051.5 588.6255,-1051.5 588.6255,-1057.5 582.6255,-1063.5 576.6255,-1063.5 576.6255,-1063.5 418.7241,-1063.5 418.7241,-1063.5 412.7241,-1063.5 406.7241,-1057.5 406.7241,-1051.5 406.7241,-1051.5 406.7241,-869.5 406.7241,-869.5 406.7241,-863.5 412.7241,-857.5 418.7241,-857.5"/>
<text text-anchor="middle" x="437.5" y="-1048.3" font-family="Times,serif" font-size="14.00" fill="#000000">Input</text>
<polyline fill="none" stroke="#000000" stroke-width="2" points="468.2759,-1041.5 468.2759,-1063.5 "/>
<text text-anchor="middle" x="499.4414" y="-1048.3" font-family="Times,serif" font-size="14.00" fill="#000000">Filter</text>
<polyline fill="none" stroke="#000000" stroke-width="2" points="530.6069,-1041.5 530.6069,-1063.5 "/>
<text text-anchor="middle" x="559.5518" y="-1048.3" font-family="Times,serif" font-size="14.00" fill="#000000">Bias</text>
<polyline fill="none" stroke="#000000" stroke-width="2" points="406.7241,-1041.5 588.6255,-1041.5 "/>
<text text-anchor="start" x="414.7241" y="-1026.3" font-family="Times,serif" font-size="14.00" fill="#000000">Convolution</text>
<text text-anchor="start" x="414.7241" y="-1012.3" font-family="Times,serif" font-size="14.00" fill="#000000">name : conv__9</text>
<text text-anchor="start" x="414.7241" y="-998.3" font-family="Times,serif" font-size="14.00" fill="#000000">Input : float&lt;8 x 9 x 9 x 16&gt;</text>
<text text-anchor="start" x="414.7241" y="-984.3" font-family="Times,serif" font-size="14.00" fill="#000000">Filter : float&lt;16 x 5 x 5 x 16&gt;</text>
<text text-anchor="start" x="414.7241" y="-970.3" font-family="Times,serif" font-size="14.00" fill="#000000">Bias : float&lt;16&gt;</text>
<text text-anchor="start" x="414.7241" y="-956.3" font-family="Times,serif" font-size="14.00" fill="#000000">Kernel : 5</text>
<text text-anchor="start" x="414.7241" y="-942.3" font-family="Times,serif" font-size="14.00" fill="#000000">Stride : 1</text>
<text text-anchor="start" x="414.7241" y="-928.3" font-family="Times,serif" font-size="14.00" fill="#000000">Pad : 2</text>
<text text-anchor="start" x="414.7241" y="-914.3" font-family="Times,serif" font-size="14.00" fill="#000000">Depth : 16</text>
<text text-anchor="start" x="414.7241" y="-900.3" font-family="Times,serif" font-size="14.00" fill="#000000">users : 1</text>
<text text-anchor="start" x="414.7241" y="-886.3" font-family="Times,serif" font-size="14.00" fill="#000000">Result : float&lt;8 x 9 x 9 x 16&gt;</text>
<polyline fill="none" stroke="#000000" stroke-width="2" points="406.7241,-879.5 588.6255,-879.5 "/>
<text text-anchor="middle" x="497.6138" y="-864.3" font-family="Times,serif" font-size="14.00" fill="#000000">Result</text>
</g>
<!-- 0x7fbd4de00e10&#45;&gt;0x7fbd4de00ef0 -->
<g id="edge17" class="edge">
<title>0x7fbd4de00e10:Output&#45;&gt;0x7fbd4de00ef0:Filter</title>
<path fill="none" stroke="#000000" d="M499.6748,-1118.5C499.6748,-1097.875 499.6748,-1090.3018 499.6748,-1073.7554"/>
<polygon fill="#000000" stroke="#000000" points="503.1749,-1073.5 499.6748,-1063.5 496.1749,-1073.5 503.1749,-1073.5"/>
</g>
<!-- 0x7fbd4de010a0 -->
<g id="node14" class="node">
<title>0x7fbd4de010a0</title>
<path fill="#fff0f5" stroke="#000000" stroke-width="2" d="M419.5,-698.5C419.5,-698.5 575.8496,-698.5 575.8496,-698.5 581.8496,-698.5 587.8496,-704.5 587.8496,-710.5 587.8496,-710.5 587.8496,-808.5 587.8496,-808.5 587.8496,-814.5 581.8496,-820.5 575.8496,-820.5 575.8496,-820.5 419.5,-820.5 419.5,-820.5 413.5,-820.5 407.5,-814.5 407.5,-808.5 407.5,-808.5 407.5,-710.5 407.5,-710.5 407.5,-704.5 413.5,-698.5 419.5,-698.5"/>
<text text-anchor="middle" x="497.2759" y="-805.3" font-family="Times,serif" font-size="14.00" fill="#000000">Input</text>
<polyline fill="none" stroke="#000000" stroke-width="2" points="407.5,-798.5 587.8496,-798.5 "/>
<text text-anchor="start" x="415.5" y="-783.3" font-family="Times,serif" font-size="14.00" fill="#000000">Relu</text>
<text text-anchor="start" x="415.5" y="-769.3" font-family="Times,serif" font-size="14.00" fill="#000000">name : relu__10</text>
<text text-anchor="start" x="415.5" y="-755.3" font-family="Times,serif" font-size="14.00" fill="#000000">Input : float&lt;8 x 9 x 9 x 16&gt;</text>
<text text-anchor="start" x="415.5" y="-741.3" font-family="Times,serif" font-size="14.00" fill="#000000">users : 1</text>
<text text-anchor="start" x="415.5" y="-727.3" font-family="Times,serif" font-size="14.00" fill="#000000">Result : float&lt;8 x 9 x 9 x 16&gt;</text>
<polyline fill="none" stroke="#000000" stroke-width="2" points="407.5,-720.5 587.8496,-720.5 "/>
<text text-anchor="middle" x="497.3896" y="-705.3" font-family="Times,serif" font-size="14.00" fill="#000000">Result</text>
</g>
<!-- 0x7fbd4de00ef0&#45;&gt;0x7fbd4de010a0 -->
<g id="edge8" class="edge">
<title>0x7fbd4de00ef0:Result&#45;&gt;0x7fbd4de010a0:Input</title>
<path fill="none" stroke="#000000" d="M497.6748,-857.5C497.6748,-845.0382 497.6748,-839.6592 497.6748,-830.6281"/>
<polygon fill="#000000" stroke="#000000" points="501.1749,-830.5 497.6748,-820.5 494.1749,-830.5 501.1749,-830.5"/>
</g>
<!-- 0x7fbd4de00900 -->
<g id="node10" class="node">
<title>0x7fbd4de00900</title>
<path fill="#cdc9c9" stroke="#00688b" stroke-width="2" d="M415.9902,-1703.5C415.9902,-1703.5 513.3594,-1703.5 513.3594,-1703.5 519.3594,-1703.5 525.3594,-1709.5 525.3594,-1715.5 525.3594,-1715.5 525.3594,-1819.5 525.3594,-1819.5 525.3594,-1825.5 519.3594,-1831.5 513.3594,-1831.5 513.3594,-1831.5 415.9902,-1831.5 415.9902,-1831.5 409.9902,-1831.5 403.9902,-1825.5 403.9902,-1819.5 403.9902,-1819.5 403.9902,-1715.5 403.9902,-1715.5 403.9902,-1709.5 409.9902,-1703.5 415.9902,-1703.5"/>
<text text-anchor="start" x="411.9902" y="-1816.3" font-family="Times,serif" font-size="14.00" fill="#000000">Variable</text>
<text text-anchor="start" x="411.9902" y="-1802.3" font-family="Times,serif" font-size="14.00" fill="#000000">name : &quot;bias__3&quot;</text>
<text text-anchor="start" x="411.9902" y="-1788.3" font-family="Times,serif" font-size="14.00" fill="#000000">output : float&lt;16&gt;</text>
<text text-anchor="start" x="411.9902" y="-1774.3" font-family="Times,serif" font-size="14.00" fill="#000000">visibility : private</text>
<text text-anchor="start" x="411.9902" y="-1760.3" font-family="Times,serif" font-size="14.00" fill="#000000">init : broadcast</text>
<text text-anchor="start" x="411.9902" y="-1746.3" font-family="Times,serif" font-size="14.00" fill="#000000">val : 1.000000e&#45;01</text>
<text text-anchor="start" x="411.9902" y="-1732.3" font-family="Times,serif" font-size="14.00" fill="#000000">users : 1</text>
<polyline fill="none" stroke="#00688b" stroke-width="2" points="403.9902,-1725.5 525.3594,-1725.5 "/>
<text text-anchor="middle" x="464.4351" y="-1710.3" font-family="Times,serif" font-size="14.00" fill="#000000">Output</text>
</g>
<!-- 0x7fbd4de00900&#45;&gt;0x7fbd4de00b00 -->
<g id="edge13" class="edge">
<title>0x7fbd4de00900:Output&#45;&gt;0x7fbd4de00b00:Bias</title>
<path fill="none" stroke="#000000" d="M403.6748,-1714.5C393.4483,-1714.5 399.0482,-1680.2673 396.3639,-1663.9533"/>
<polygon fill="#000000" stroke="#000000" points="399.1619,-1661.842 390.6748,-1655.5 393.3546,-1665.7504 399.1619,-1661.842"/>
</g>
<!-- 0x7fbd4de007b0 -->
<g id="node11" class="node">
<title>0x7fbd4de007b0</title>
<path fill="#cdc9c9" stroke="#00688b" stroke-width="2" d="M217.5,-1703.5C217.5,-1703.5 373.8496,-1703.5 373.8496,-1703.5 379.8496,-1703.5 385.8496,-1709.5 385.8496,-1715.5 385.8496,-1715.5 385.8496,-1819.5 385.8496,-1819.5 385.8496,-1825.5 379.8496,-1831.5 373.8496,-1831.5 373.8496,-1831.5 217.5,-1831.5 217.5,-1831.5 211.5,-1831.5 205.5,-1825.5 205.5,-1819.5 205.5,-1819.5 205.5,-1715.5 205.5,-1715.5 205.5,-1709.5 211.5,-1703.5 217.5,-1703.5"/>
<text text-anchor="start" x="213.5" y="-1816.3" font-family="Times,serif" font-size="14.00" fill="#000000">Variable</text>
<text text-anchor="start" x="213.5" y="-1802.3" font-family="Times,serif" font-size="14.00" fill="#000000">name : &quot;filter__2&quot;</text>
<text text-anchor="start" x="213.5" y="-1788.3" font-family="Times,serif" font-size="14.00" fill="#000000">output : float&lt;16 x 5 x 5 x 1&gt;</text>
<text text-anchor="start" x="213.5" y="-1774.3" font-family="Times,serif" font-size="14.00" fill="#000000">visibility : private</text>
<text text-anchor="start" x="213.5" y="-1760.3" font-family="Times,serif" font-size="14.00" fill="#000000">init : xavier</text>
<text text-anchor="start" x="213.5" y="-1746.3" font-family="Times,serif" font-size="14.00" fill="#000000">val : 2.500000e+01</text>
<text text-anchor="start" x="213.5" y="-1732.3" font-family="Times,serif" font-size="14.00" fill="#000000">users : 1</text>
<polyline fill="none" stroke="#00688b" stroke-width="2" points="205.5,-1725.5 385.8496,-1725.5 "/>
<text text-anchor="middle" x="295.4448" y="-1710.3" font-family="Times,serif" font-size="14.00" fill="#000000">Output</text>
</g>
<!-- 0x7fbd4de007b0&#45;&gt;0x7fbd4de00b00 -->
<g id="edge10" class="edge">
<title>0x7fbd4de007b0:Output&#45;&gt;0x7fbd4de00b00:Filter</title>
<path fill="none" stroke="#000000" d="M295.6748,-1703.5C295.6748,-1691.0382 295.6748,-1685.6592 295.6748,-1676.6281"/>
<polygon fill="#000000" stroke="#000000" points="299.1749,-1676.5 295.6748,-1666.5 292.1749,-1676.5 299.1749,-1676.5"/>
</g>
<!-- 0x7fbd4de00c10 -->
<g id="node12" class="node">
<title>0x7fbd4de00c10</title>
<path fill="#fff0f5" stroke="#000000" stroke-width="2" d="M208.5,-1301.5C208.5,-1301.5 378.8496,-1301.5 378.8496,-1301.5 384.8496,-1301.5 390.8496,-1307.5 390.8496,-1313.5 390.8496,-1313.5 390.8496,-1411.5 390.8496,-1411.5 390.8496,-1417.5 384.8496,-1423.5 378.8496,-1423.5 378.8496,-1423.5 208.5,-1423.5 208.5,-1423.5 202.5,-1423.5 196.5,-1417.5 196.5,-1411.5 196.5,-1411.5 196.5,-1313.5 196.5,-1313.5 196.5,-1307.5 202.5,-1301.5 208.5,-1301.5"/>
<text text-anchor="middle" x="293.2759" y="-1408.3" font-family="Times,serif" font-size="14.00" fill="#000000">Input</text>
<polyline fill="none" stroke="#000000" stroke-width="2" points="196.5,-1401.5 390.8496,-1401.5 "/>
<text text-anchor="start" x="204.5" y="-1386.3" font-family="Times,serif" font-size="14.00" fill="#000000">Relu</text>
<text text-anchor="start" x="204.5" y="-1372.3" font-family="Times,serif" font-size="14.00" fill="#000000">name : relu__5</text>
<text text-anchor="start" x="204.5" y="-1358.3" font-family="Times,serif" font-size="14.00" fill="#000000">Input : float&lt;8 x 28 x 28 x 16&gt;</text>
<text text-anchor="start" x="204.5" y="-1344.3" font-family="Times,serif" font-size="14.00" fill="#000000">users : 1</text>
<text text-anchor="start" x="204.5" y="-1330.3" font-family="Times,serif" font-size="14.00" fill="#000000">Result : float&lt;8 x 28 x 28 x 16&gt;</text>
<polyline fill="none" stroke="#000000" stroke-width="2" points="196.5,-1323.5 390.8496,-1323.5 "/>
<text text-anchor="middle" x="293.3896" y="-1308.3" font-family="Times,serif" font-size="14.00" fill="#000000">Result</text>
</g>
<!-- 0x7fbd4de00cf0 -->
<g id="node17" class="node">
<title>0x7fbd4de00cf0</title>
<path fill="#fa8072" stroke="#000000" stroke-width="2" d="M211.6138,-1100.5C211.6138,-1100.5 375.7358,-1100.5 375.7358,-1100.5 381.7358,-1100.5 387.7358,-1106.5 387.7358,-1112.5 387.7358,-1112.5 387.7358,-1252.5 387.7358,-1252.5 387.7358,-1258.5 381.7358,-1264.5 375.7358,-1264.5 375.7358,-1264.5 211.6138,-1264.5 211.6138,-1264.5 205.6138,-1264.5 199.6138,-1258.5 199.6138,-1252.5 199.6138,-1252.5 199.6138,-1112.5 199.6138,-1112.5 199.6138,-1106.5 205.6138,-1100.5 211.6138,-1100.5"/>
<text text-anchor="middle" x="293.3896" y="-1249.3" font-family="Times,serif" font-size="14.00" fill="#000000">Input</text>
<polyline fill="none" stroke="#000000" stroke-width="2" points="199.6138,-1242.5 387.7358,-1242.5 "/>
<text text-anchor="start" x="207.6138" y="-1227.3" font-family="Times,serif" font-size="14.00" fill="#000000">PoolMax</text>
<text text-anchor="start" x="207.6138" y="-1213.3" font-family="Times,serif" font-size="14.00" fill="#000000">name : pool__6</text>
<text text-anchor="start" x="207.6138" y="-1199.3" font-family="Times,serif" font-size="14.00" fill="#000000">Input : float&lt;8 x 28 x 28 x 16&gt;</text>
<text text-anchor="start" x="207.6138" y="-1185.3" font-family="Times,serif" font-size="14.00" fill="#000000">Kernel : 3</text>
<text text-anchor="start" x="207.6138" y="-1171.3" font-family="Times,serif" font-size="14.00" fill="#000000">Stride : 3</text>
<text text-anchor="start" x="207.6138" y="-1157.3" font-family="Times,serif" font-size="14.00" fill="#000000">Pad : 0</text>
<text text-anchor="start" x="207.6138" y="-1143.3" font-family="Times,serif" font-size="14.00" fill="#000000">users : 1</text>
<text text-anchor="start" x="207.6138" y="-1129.3" font-family="Times,serif" font-size="14.00" fill="#000000">Result : float&lt;8 x 9 x 9 x 16&gt;</text>
<polyline fill="none" stroke="#000000" stroke-width="2" points="199.6138,-1122.5 387.7358,-1122.5 "/>
<text text-anchor="middle" x="293.5034" y="-1107.3" font-family="Times,serif" font-size="14.00" fill="#000000">Result</text>
</g>
<!-- 0x7fbd4de00c10&#45;&gt;0x7fbd4de00cf0 -->
<g id="edge11" class="edge">
<title>0x7fbd4de00c10:Result&#45;&gt;0x7fbd4de00cf0:Input</title>
<path fill="none" stroke="#000000" d="M293.6748,-1301.5C293.6748,-1289.0382 293.6748,-1283.6592 293.6748,-1274.6281"/>
<polygon fill="#000000" stroke="#000000" points="297.1749,-1274.5 293.6748,-1264.5 290.1749,-1274.5 297.1749,-1274.5"/>
</g>
<!-- 0x7fbd4de018c0&#45;&gt;0x7fbd4de01c60 -->
<g id="edge15" class="edge">
<title>0x7fbd4de018c0:Result&#45;&gt;0x7fbd4de01c60:Input</title>
<path fill="none" stroke="#000000" d="M845.6748,-148.5C850.7859,-148.5 847.5113,-141.7698 845.6748,-137 839.2901,-120.4178 821.4954,-121.1232 815.0468,-110.2405"/>
<polygon fill="#000000" stroke="#000000" points="818.4416,-109.3879 812.6748,-100.5 811.6403,-111.0442 818.4416,-109.3879"/>
</g>
<!-- 0x7fbd4de010a0&#45;&gt;0x7fbd4de01180 -->
<g id="edge7" class="edge">
<title>0x7fbd4de010a0:Result&#45;&gt;0x7fbd4de01180:Input</title>
<path fill="none" stroke="#000000" d="M497.6748,-698.5C497.6748,-686.0382 497.6748,-680.6592 497.6748,-671.6281"/>
<polygon fill="#000000" stroke="#000000" points="501.1749,-671.5 497.6748,-661.5 494.1749,-671.5 501.1749,-671.5"/>
</g>
<!-- 0x7fbd4de01720 -->
<g id="node15" class="node">
<title>0x7fbd4de01720</title>
<path fill="#eee9e9" stroke="#6e8b3d" stroke-width="2" d="M796.8149,-335.5C796.8149,-335.5 914.5347,-335.5 914.5347,-335.5 920.5347,-335.5 926.5347,-341.5 926.5347,-347.5 926.5347,-347.5 926.5347,-423.5 926.5347,-423.5 926.5347,-429.5 920.5347,-435.5 914.5347,-435.5 914.5347,-435.5 796.8149,-435.5 796.8149,-435.5 790.8149,-435.5 784.8149,-429.5 784.8149,-423.5 784.8149,-423.5 784.8149,-347.5 784.8149,-347.5 784.8149,-341.5 790.8149,-335.5 796.8149,-335.5"/>
<text text-anchor="start" x="792.8149" y="-420.3" font-family="Times,serif" font-size="14.00" fill="#000000">Variable</text>
<text text-anchor="start" x="792.8149" y="-406.3" font-family="Times,serif" font-size="14.00" fill="#000000">name : &quot;selected__15&quot;</text>
<text text-anchor="start" x="792.8149" y="-392.3" font-family="Times,serif" font-size="14.00" fill="#000000">output : index&lt;8 x 1&gt;</text>
<text text-anchor="start" x="792.8149" y="-378.3" font-family="Times,serif" font-size="14.00" fill="#000000">visibility : public</text>
<text text-anchor="start" x="792.8149" y="-364.3" font-family="Times,serif" font-size="14.00" fill="#000000">users : 1</text>
<polyline fill="none" stroke="#6e8b3d" stroke-width="2" points="784.8149,-357.5 926.5347,-357.5 "/>
<text text-anchor="middle" x="855.2598" y="-342.3" font-family="Times,serif" font-size="14.00" fill="#000000">Output</text>
</g>
<!-- 0x7fbd4de01720&#45;&gt;0x7fbd4de018c0 -->
<g id="edge1" class="edge">
<title>0x7fbd4de01720:Output&#45;&gt;0x7fbd4de018c0:Selected</title>
<path fill="none" stroke="#000000" d="M784.6748,-346.5C745.3847,-346.5 850.7032,-285.5867 854.3438,-267.503"/>
<polygon fill="#000000" stroke="#000000" points="856.0854,-264.4671 845.6748,-262.5 852.5865,-270.5299 856.0854,-264.4671"/>
</g>
<!-- 0x7fbd50000020 -->
<g id="node16" class="node">
<title>0x7fbd50000020</title>
<path fill="#cdc9c9" stroke="#00688b" stroke-width="2" d="M622.9902,-1118.5C622.9902,-1118.5 720.3594,-1118.5 720.3594,-1118.5 726.3594,-1118.5 732.3594,-1124.5 732.3594,-1130.5 732.3594,-1130.5 732.3594,-1234.5 732.3594,-1234.5 732.3594,-1240.5 726.3594,-1246.5 720.3594,-1246.5 720.3594,-1246.5 622.9902,-1246.5 622.9902,-1246.5 616.9902,-1246.5 610.9902,-1240.5 610.9902,-1234.5 610.9902,-1234.5 610.9902,-1130.5 610.9902,-1130.5 610.9902,-1124.5 616.9902,-1118.5 622.9902,-1118.5"/>
<text text-anchor="start" x="618.9902" y="-1231.3" font-family="Times,serif" font-size="14.00" fill="#000000">Variable</text>
<text text-anchor="start" x="618.9902" y="-1217.3" font-family="Times,serif" font-size="14.00" fill="#000000">name : &quot;bias__8&quot;</text>
<text text-anchor="start" x="618.9902" y="-1203.3" font-family="Times,serif" font-size="14.00" fill="#000000">output : float&lt;16&gt;</text>
<text text-anchor="start" x="618.9902" y="-1189.3" font-family="Times,serif" font-size="14.00" fill="#000000">visibility : private</text>
<text text-anchor="start" x="618.9902" y="-1175.3" font-family="Times,serif" font-size="14.00" fill="#000000">init : broadcast</text>
<text text-anchor="start" x="618.9902" y="-1161.3" font-family="Times,serif" font-size="14.00" fill="#000000">val : 1.000000e&#45;01</text>
<text text-anchor="start" x="618.9902" y="-1147.3" font-family="Times,serif" font-size="14.00" fill="#000000">users : 1</text>
<polyline fill="none" stroke="#00688b" stroke-width="2" points="610.9902,-1140.5 732.3594,-1140.5 "/>
<text text-anchor="middle" x="671.4351" y="-1125.3" font-family="Times,serif" font-size="14.00" fill="#000000">Output</text>
</g>
<!-- 0x7fbd50000020&#45;&gt;0x7fbd4de00ef0 -->
<g id="edge5" class="edge">
<title>0x7fbd50000020:Output&#45;&gt;0x7fbd4de00ef0:Bias</title>
<path fill="none" stroke="#000000" d="M610.6748,-1129.5C597.0901,-1129.5 606.3731,-1113.0716 602.6748,-1100 597.9938,-1083.4549 605.5152,-1063.7698 598.535,-1055.9493"/>
<polygon fill="#000000" stroke="#000000" points="599.2696,-1052.4984 588.6748,-1052.5 596.9582,-1059.1057 599.2696,-1052.4984"/>
</g>
<!-- 0x7fbd4de00cf0&#45;&gt;0x7fbd4de00ef0 -->
<g id="edge9" class="edge">
<title>0x7fbd4de00cf0:Result&#45;&gt;0x7fbd4de00ef0:Input</title>
<path fill="none" stroke="#000000" d="M387.6748,-1111.5C398.3283,-1111.5 395.6283,-1076.2059 400.2309,-1060.2132"/>
<polygon fill="#000000" stroke="#000000" points="402.9494,-1062.4183 406.6748,-1052.5 397.5774,-1057.9303 402.9494,-1062.4183"/>
</g>
<!-- 0x7fbd4de00b00&#45;&gt;0x7fbd4de00c10 -->
<g id="edge14" class="edge">
<title>0x7fbd4de00b00:Result&#45;&gt;0x7fbd4de00c10:Input</title>
<path fill="none" stroke="#000000" d="M293.6748,-1460.5C293.6748,-1448.0382 293.6748,-1442.6592 293.6748,-1433.6281"/>
<polygon fill="#000000" stroke="#000000" points="297.1749,-1433.5 293.6748,-1423.5 290.1749,-1433.5 297.1749,-1433.5"/>
</g>
</g>
</svg>
